# xmcd
#
# Track frame offsets:
#	150
#	17529
#	38261
#	62954
#	78828
#	98663
#	113813
#	131291
#	150975
#	176319
#	192072
#	212086
#
# Disc length: 3069 seconds
#
# Revision: 1
# Processed by: cddbd v1.5.1PL0 Copyright (c) Steve Scherf et al.
# Submitted via: audiograbber 1.83.01
#
DISCID=800bfb0c
DTITLE=Brandon Rhyder - Because She Loves Me
DYEAR=2001
DGENRE=Americana
TTITLE0=Have I Waited Too Long
TTITLE1=Because She Loves Me
TTITLE2=Walking On Quicksand
TTITLE3=The Highway
TTITLE4=Susie
TTITLE5=Ain't That Strange
TTITLE6=Remember
TTITLE7=Texas Country Made
TTITLE8=Their Home
TTITLE9=San Antone, Mexico
TTITLE10=Can I Have Some Time
TTITLE11=The Hard Way
EXTD=
EXTT0=
EXTT1=
EXTT2=
EXTT3=
EXTT4=
EXTT5=
EXTT6=
EXTT7=
EXTT8=
EXTT9=
EXTT10=
EXTT11=
PLAYORDER=
